<svg xmlns="http://www.w3.org/2000/svg" xmlns:xlink="http://www.w3.org/1999/xlink" viewBox="0 0 611.41 240.46"><defs><style>.cls-1{isolation:isolate;}.cls-2{clip-path:url(#clip-path);}.cls-3{fill:none;}.cls-4{mask:url(#mask);}.cls-11,.cls-14,.cls-17,.cls-20,.cls-5,.cls-8{mix-blend-mode:multiply;}.cls-5{fill:url(#linear-gradient);}.cls-6{clip-path:url(#clip-path-2);}.cls-7{mask:url(#mask-2);}.cls-8{fill:url(#linear-gradient-2);}.cls-9{clip-path:url(#clip-path-3);}.cls-10{mask:url(#mask-3);}.cls-11{fill:url(#linear-gradient-3);}.cls-12{clip-path:url(#clip-path-4);}.cls-13{mask:url(#mask-4);}.cls-14{fill:url(#linear-gradient-4);}.cls-15{clip-path:url(#clip-path-5);}.cls-16{mask:url(#mask-5);}.cls-17{fill:url(#linear-gradient-5);}.cls-18{clip-path:url(#clip-path-6);}.cls-19{mask:url(#mask-6);}.cls-20{fill:url(#linear-gradient-6);}.cls-21{clip-path:url(#clip-path-7);}.cls-22{font-size:24px;fill:#a7a9ac;}.cls-22,.cls-28{font-family:Sansation-Bold, Sansation Bold;font-weight:700;}.cls-23{letter-spacing:0.4em;}.cls-24{letter-spacing:0.4em;}.cls-25{letter-spacing:0.4em;}.cls-26{letter-spacing:0.4em;}.cls-27{letter-spacing:0.4em;}.cls-28{font-size:45px;}.cls-28,.cls-31{fill:#6d6e71;}.cls-29{letter-spacing:-0.03em;}.cls-30{fill:#231f20;}.cls-32{mask:url(#mask-7);}.cls-33{clip-path:url(#clip-path-11);}.cls-34{clip-path:url(#clip-path-12);}.cls-35{fill:url(#linear-gradient-7);}.cls-36{mask:url(#mask-8);}.cls-37{clip-path:url(#clip-path-13);}.cls-38{clip-path:url(#clip-path-14);}.cls-39{fill:url(#linear-gradient-8);}.cls-40{mask:url(#mask-9);}.cls-41{clip-path:url(#clip-path-15);}.cls-42{clip-path:url(#clip-path-16);}.cls-43{fill:url(#linear-gradient-9);}.cls-44{fill:#6c6e70;}.cls-45{fill:#6b6d6f;}.cls-46{fill:#6b6c6e;}.cls-47{fill:#6a6b6e;}.cls-48{fill:#696b6d;}.cls-49{fill:#686a6c;}.cls-50{fill:#68696b;}.cls-51{fill:#67686a;}.cls-52{fill:#66676a;}.cls-53{fill:#656769;}.cls-54{fill:#656668;}.cls-55{fill:#646567;}.cls-56{fill:#636466;}.cls-57{fill:#626365;}.cls-58{fill:#616265;}.cls-59{fill:#606164;}.cls-60{fill:#606163;}.cls-61{fill:#5f6062;}.cls-62{fill:#5e5f61;}.cls-63{fill:#5d5e60;}.cls-64{fill:#5c5d5f;}.cls-65{fill:#5b5c5f;}.cls-66{fill:#5b5c5e;}.cls-67{fill:#5a5b5d;}.cls-68{fill:#595a5c;}.cls-69{fill:#58595b;}.cls-70{fill:#57585a;}.cls-71{fill:#565759;}.cls-72{fill:#555658;}.cls-73{fill:#555558;}.cls-74{fill:#545457;}.cls-75{fill:#535456;}.cls-76{fill:#525355;}.cls-77{fill:#515254;}.cls-78{fill:#505153;}.cls-79{fill:#505052;}.cls-80{fill:#4f4f51;}.cls-81{fill:#4e4e50;}.cls-82{fill:#4d4d4f;}.cls-83{fill:#4c4c4e;}.cls-84{fill:#4b4b4d;}.cls-85{fill:#4a4a4c;}.cls-86{fill:#49494b;}.cls-87{fill:#48484a;}.cls-88{fill:#474749;}.cls-89{fill:#464648;}.cls-90{fill:#454547;}.cls-91{fill:#444446;}.cls-92{fill:#444345;}.cls-93{fill:#434244;}.cls-94{fill:#424143;}.cls-95{fill:#414042;}.cls-96{clip-path:url(#clip-path-17);}.cls-97{fill:url(#linear-gradient-10);}.cls-98{mask:url(#mask-10);}.cls-99{opacity:0.8;}.cls-100{clip-path:url(#clip-path-19);}.cls-101{clip-path:url(#clip-path-20);}.cls-102{fill:url(#linear-gradient-11);}.cls-103{clip-path:url(#clip-path-21);}.cls-104{fill:url(#linear-gradient-12);}.cls-105{mask:url(#mask-11);}.cls-106{clip-path:url(#clip-path-23);}.cls-107{clip-path:url(#clip-path-24);}.cls-108{fill:url(#linear-gradient-13);}.cls-109{clip-path:url(#clip-path-25);}.cls-110{fill:url(#linear-gradient-14);}.cls-111{mask:url(#mask-12);}.cls-112{clip-path:url(#clip-path-27);}.cls-113{clip-path:url(#clip-path-28);}.cls-114{fill:url(#linear-gradient-15);}.cls-115{filter:url(#luminosity-noclip-12);}.cls-116{filter:url(#luminosity-noclip-11);}.cls-117{filter:url(#luminosity-noclip-10);}.cls-118{filter:url(#luminosity-noclip-9);}.cls-119{filter:url(#luminosity-noclip-8);}.cls-120{filter:url(#luminosity-noclip-7);}.cls-121{filter:url(#luminosity-noclip-6);}.cls-122{filter:url(#luminosity-noclip-5);}.cls-123{filter:url(#luminosity-noclip-4);}.cls-124{filter:url(#luminosity-noclip-3);}.cls-125{filter:url(#luminosity-noclip-2);}.cls-126{filter:url(#luminosity-noclip);}</style><clipPath id="clip-path"><polygon class="cls-3" points="40.18 150 0.36 81.27 40.18 12.53 40.18 150"/></clipPath><filter id="luminosity-noclip" x="0.36" y="-8898" width="39.83" height="32766" filterUnits="userSpaceOnUse" color-interpolation-filters="sRGB"><feFlood flood-color="#fff" result="bg"/><feBlend in="SourceGraphic" in2="bg"/></filter><mask id="mask" x="0.36" y="-8898" width="39.83" height="32766" maskUnits="userSpaceOnUse"><g class="cls-126"/></mask><linearGradient id="linear-gradient" x1="-159.92" y1="399.59" x2="-158.92" y2="399.59" gradientTransform="matrix(-39.82, 0, 0, 39.82, -6328.44, -15831.52)" gradientUnits="userSpaceOnUse"><stop offset="0" stop-color="#231f20"/><stop offset="0.21" stop-color="#231f20"/><stop offset="0.86" stop-color="#fff"/><stop offset="1" stop-color="#fff"/></linearGradient><clipPath id="clip-path-2"><polygon class="cls-3" points="58.62 134.77 76.82 103.35 118.85 103.35 100.65 134.77 58.62 134.77"/></clipPath><filter id="luminosity-noclip-2" x="45.02" y="-8898" width="87.44" height="32766" filterUnits="userSpaceOnUse" color-interpolation-filters="sRGB"><feFlood flood-color="#fff" result="bg"/><feBlend in="SourceGraphic" in2="bg"/></filter><mask id="mask-2" x="45.02" y="-8898" width="87.44" height="32766" maskUnits="userSpaceOnUse"><g class="cls-125"/></mask><linearGradient id="linear-gradient-2" x1="-152.34" y1="399.28" x2="-151.34" y2="399.28" gradientTransform="matrix(0, -39.12, -39.12, 0, 15710.14, -5821.51)" gradientUnits="userSpaceOnUse"><stop offset="0" stop-color="#231f20"/><stop offset="0.51" stop-color="#231f20"/><stop offset="0.86" stop-color="#fff"/><stop offset="1" stop-color="#fff"/></linearGradient><clipPath id="clip-path-3"><polygon class="cls-3" points="40.18 12.53 119.83 12.53 159.65 81.27 40.18 12.53"/></clipPath><filter id="luminosity-noclip-3" x="10.42" y="-8898" width="179" height="32766" filterUnits="userSpaceOnUse" color-interpolation-filters="sRGB"><feFlood flood-color="#fff" result="bg"/><feBlend in="SourceGraphic" in2="bg"/></filter><mask id="mask-3" x="10.42" y="-8898" width="179" height="32766" maskUnits="userSpaceOnUse"><g class="cls-124"/></mask><linearGradient id="linear-gradient-3" x1="-148.49" y1="405.81" x2="-147.49" y2="405.81" gradientTransform="matrix(39.82, 0, 0, -39.82, 6012.95, 16207.33)" xlink:href="#linear-gradient"/><clipPath id="clip-path-4"><polygon class="cls-3" points="159.65 81.27 119.83 150 40.18 150 159.65 81.27"/></clipPath><filter id="luminosity-noclip-4" x="10.42" y="-8898" width="178.99" height="32766" filterUnits="userSpaceOnUse" color-interpolation-filters="sRGB"><feFlood flood-color="#fff" result="bg"/><feBlend in="SourceGraphic" in2="bg"/></filter><mask id="mask-4" x="10.42" y="-8898" width="178.99" height="32766" maskUnits="userSpaceOnUse"><g class="cls-123"/></mask><linearGradient id="linear-gradient-4" x1="-159.59" y1="412.6" x2="-158.59" y2="412.6" gradientTransform="matrix(0, 39.82, 39.82, 0, -16330.35, 6470.82)" xlink:href="#linear-gradient"/><clipPath id="clip-path-5"><polygon class="cls-3" points="136.78 73.53 100.38 73.53 79.37 37.25 115.77 37.25 136.78 73.53"/></clipPath><filter id="luminosity-noclip-5" x="63.66" y="-8898" width="88.83" height="32766" filterUnits="userSpaceOnUse" color-interpolation-filters="sRGB"><feFlood flood-color="#fff" result="bg"/><feBlend in="SourceGraphic" in2="bg"/></filter><mask id="mask-5" x="63.66" y="-8898" width="88.83" height="32766" maskUnits="userSpaceOnUse"><g class="cls-122"/></mask><linearGradient id="linear-gradient-5" x1="-163.65" y1="406.19" x2="-162.65" y2="406.19" gradientTransform="matrix(-39.11, 0, 0, 39.11, -6272.55, -15830.37)" xlink:href="#linear-gradient-2"/><clipPath id="clip-path-6"><polygon class="cls-3" points="44.54 36.12 62.74 67.54 41.73 103.82 23.53 72.4 44.54 36.12"/></clipPath><filter id="luminosity-noclip-6" x="23.53" y="-8898" width="39.22" height="32766" filterUnits="userSpaceOnUse" color-interpolation-filters="sRGB"><feFlood flood-color="#fff" result="bg"/><feBlend in="SourceGraphic" in2="bg"/></filter><mask id="mask-6" x="23.53" y="-8898" width="39.22" height="32766" maskUnits="userSpaceOnUse"><g class="cls-121"/></mask><linearGradient id="linear-gradient-6" x1="-152.02" y1="412.51" x2="-151.02" y2="412.51" gradientTransform="matrix(39.22, 0, 0, -39.22, 5985.51, 16247.15)" xlink:href="#linear-gradient-2"/><clipPath id="clip-path-7" transform="translate(51.2 38.73)"><rect class="cls-3" width="570.05" height="150.65"/></clipPath><filter id="luminosity-noclip-7" x="0.36" y="12.52" width="39.98" height="137.48" filterUnits="userSpaceOnUse" color-interpolation-filters="sRGB"><feFlood flood-color="#fff" result="bg"/><feBlend in="SourceGraphic" in2="bg"/></filter><mask id="mask-7" x="51.55" y="51.26" width="39.98" height="137.48" maskUnits="userSpaceOnUse"><g class="cls-120"><g transform="translate(51.2 38.73)"><g class="cls-1"><g class="cls-2"><g class="cls-4"><rect class="cls-5" x="0.36" y="12.52" width="39.82" height="137.48"/></g></g></g></g></g></mask><clipPath id="clip-path-11" transform="translate(51.2 38.73)"><rect class="cls-3" x="0.51" y="12.53" width="39.82" height="137.48"/></clipPath><clipPath id="clip-path-12" transform="translate(51.2 38.73)"><polygon class="cls-3" points="40.33 150 0.51 81.27 40.33 12.53 40.33 150"/></clipPath><linearGradient id="linear-gradient-7" x1="-159.92" y1="399.59" x2="-158.92" y2="399.59" gradientTransform="matrix(-39.82, 0, 0, 39.82, -6277.09, -15792.79)" gradientUnits="userSpaceOnUse"><stop offset="0" stop-color="#4d4d4f"/><stop offset="0.21" stop-color="#4d4d4f"/><stop offset="0.86" stop-color="#4d4d4f"/><stop offset="1" stop-color="#4d4d4f"/></linearGradient><filter id="luminosity-noclip-8" x="10.42" y="-39.21" width="179" height="172.68" filterUnits="userSpaceOnUse" color-interpolation-filters="sRGB"><feFlood flood-color="#fff" result="bg"/><feBlend in="SourceGraphic" in2="bg"/></filter><mask id="mask-8" x="61.61" y="-0.47" width="179" height="172.68" maskUnits="userSpaceOnUse"><g class="cls-119"><g transform="translate(51.2 38.73)"><g class="cls-1"><g class="cls-9"><g class="cls-10"><rect class="cls-11" x="40.28" y="-22.02" width="119.26" height="137.83" transform="translate(9.35 109.98) rotate(-60)"/></g></g></g></g></g></mask><clipPath id="clip-path-13" transform="translate(51.2 38.73)"><rect class="cls-3" x="40.18" y="13" width="119.47" height="68.74"/></clipPath><clipPath id="clip-path-14" transform="translate(51.2 38.73)"><polygon class="cls-3" points="40.18 13 119.83 13 159.65 81.74 40.18 13"/></clipPath><linearGradient id="linear-gradient-8" x1="-148.49" y1="405.81" x2="-147.49" y2="405.81" gradientTransform="matrix(39.82, 0, 0, -39.82, 6012.95, 16207.81)" xlink:href="#linear-gradient-7"/><filter id="luminosity-noclip-9" x="10.42" y="29.53" width="179" height="172.2" filterUnits="userSpaceOnUse" color-interpolation-filters="sRGB"><feFlood flood-color="#fff" result="bg"/><feBlend in="SourceGraphic" in2="bg"/></filter><mask id="mask-9" x="61.62" y="68.26" width="179" height="172.2" maskUnits="userSpaceOnUse"><g class="cls-118"><g transform="translate(51.2 38.73)"><g class="cls-1"><g class="cls-12"><g class="cls-13"><rect class="cls-14" x="31" y="56" width="137.83" height="119.26" transform="translate(-44.43 65.45) rotate(-30)"/></g></g></g></g></g></mask><clipPath id="clip-path-15" transform="translate(51.2 38.73)"><rect class="cls-3" x="40.18" y="81.26" width="119.47" height="68.74"/></clipPath><clipPath id="clip-path-16" transform="translate(51.2 38.73)"><polygon class="cls-3" points="159.65 81.26 119.83 150 40.18 150 159.65 81.26"/></clipPath><linearGradient id="linear-gradient-9" x1="-159.59" y1="412.6" x2="-158.59" y2="412.6" gradientTransform="matrix(0, 39.82, 39.82, 0, -16330.35, 6470.82)" xlink:href="#linear-gradient-7"/><clipPath id="clip-path-17" transform="translate(51.2 38.73)"><path class="cls-3" d="M51.45,0l0,.05A8,8,0,0,1,56.9,3.74L98.76,76h45.7L102.6,3.74A7.79,7.79,0,0,0,96.68,0Z"/></clipPath><linearGradient id="linear-gradient-10" x1="-159.36" y1="408.05" x2="-158.36" y2="408.05" gradientTransform="matrix(0, 76, 76, 0, -30862.85, 12150.09)" gradientUnits="userSpaceOnUse"><stop offset="0" stop-color="#009b90"/><stop offset="0.2" stop-color="#009b90"/><stop offset="0.7" stop-color="#5bc4bf"/><stop offset="1" stop-color="#5bc4bf"/></linearGradient><filter id="luminosity-noclip-10" x="63.66" y="12.33" width="88.83" height="86.07" filterUnits="userSpaceOnUse" color-interpolation-filters="sRGB"><feFlood flood-color="#fff" result="bg"/><feBlend in="SourceGraphic" in2="bg"/></filter><mask id="mask-10" x="114.85" y="51.06" width="88.83" height="86.07" maskUnits="userSpaceOnUse"><g class="cls-117"><g transform="translate(51.2 38.73)"><g class="cls-1"><g class="cls-15"><g class="cls-16"><rect class="cls-17" x="78.01" y="21.46" width="60.13" height="67.86" transform="translate(6.07 121.29) rotate(-60)"/></g></g></g></g></g></mask><clipPath id="clip-path-19" transform="translate(51.2 38.73)"><rect class="cls-3" x="79.59" y="37" width="56.98" height="36"/></clipPath><clipPath id="clip-path-20" transform="translate(51.2 38.73)"><polygon class="cls-3" points="136.56 73 100.44 73 79.59 37 115.71 37 136.56 73"/></clipPath><linearGradient id="linear-gradient-11" x1="-163.71" y1="406.19" x2="-162.71" y2="406.19" gradientTransform="matrix(-38.81, 0, 0, 38.81, -6226.12, -15709.52)" gradientUnits="userSpaceOnUse"><stop offset="0" stop-color="#fff"/><stop offset="0.51" stop-color="#fff"/><stop offset="0.86" stop-color="#fff"/><stop offset="1" stop-color="#fff"/></linearGradient><clipPath id="clip-path-21" transform="translate(51.2 38.73)"><path class="cls-3" d="M1,100.53a8,8,0,0,0-1,3.91v.06a6.08,6.08,0,0,0,.7,3l22.61,39,0-.05a7.94,7.94,0,0,1,.5-6.52L65.68,67.71,42.84,28.29Z"/></clipPath><linearGradient id="linear-gradient-12" x1="-152.55" y1="407.88" x2="-151.55" y2="407.88" gradientTransform="matrix(76.16, 0, 0, -76.16, 11613.91, 31153.64)" gradientUnits="userSpaceOnUse"><stop offset="0" stop-color="#50b848"/><stop offset="0.2" stop-color="#50b848"/><stop offset="0.7" stop-color="#9aca3c"/><stop offset="1" stop-color="#9aca3c"/></linearGradient><filter id="luminosity-noclip-11" x="23.53" y="36.12" width="39.22" height="67.69" filterUnits="userSpaceOnUse" color-interpolation-filters="sRGB"><feFlood flood-color="#fff" result="bg"/><feBlend in="SourceGraphic" in2="bg"/></filter><mask id="mask-11" x="74.72" y="74.85" width="39.22" height="67.69" maskUnits="userSpaceOnUse"><g class="cls-116"><g transform="translate(51.2 38.73)"><g class="cls-1"><g class="cls-18"><g class="cls-19"><rect class="cls-20" x="23.53" y="36.12" width="39.22" height="67.69"/></g></g></g></g></g></mask><clipPath id="clip-path-23" transform="translate(51.2 38.73)"><rect class="cls-3" x="23.53" y="36.12" width="39.22" height="67.69"/></clipPath><clipPath id="clip-path-24" transform="translate(51.2 38.73)"><polygon class="cls-3" points="44.54 36.12 62.74 67.54 41.73 103.82 23.53 72.4 44.54 36.12"/></clipPath><linearGradient id="linear-gradient-13" x1="-152.02" y1="412.51" x2="-151.02" y2="412.51" gradientTransform="matrix(39.22, 0, 0, -39.22, 6036.7, 16285.88)" xlink:href="#linear-gradient-11"/><clipPath id="clip-path-25" transform="translate(51.2 38.73)"><path class="cls-3" d="M159,101H75.38L52.79,140h83.66a7.75,7.75,0,0,0,6.17-3.21l22.07-38.11A8.68,8.68,0,0,1,159,101m6.05-3-.39.68a5.41,5.41,0,0,0,.6-.68Z"/></clipPath><linearGradient id="linear-gradient-14" x1="-156.1" y1="402.09" x2="-155.1" y2="402.09" gradientTransform="matrix(0, -76.43, -76.43, 0, 30840.75, -11773.39)" gradientUnits="userSpaceOnUse"><stop offset="0" stop-color="#b10069"/><stop offset="0.2" stop-color="#b10069"/><stop offset="0.7" stop-color="#d95293"/><stop offset="1" stop-color="#d95293"/></linearGradient><filter id="luminosity-noclip-12" x="45.02" y="77.27" width="87.44" height="83.58" filterUnits="userSpaceOnUse" color-interpolation-filters="sRGB"><feFlood flood-color="#fff" result="bg"/><feBlend in="SourceGraphic" in2="bg"/></filter><mask id="mask-12" x="96.21" y="116" width="87.44" height="83.58" maskUnits="userSpaceOnUse"><g class="cls-115"><g transform="translate(51.2 38.73)"><g class="cls-1"><g class="cls-6"><g class="cls-7"><rect class="cls-8" x="54.8" y="90.4" width="67.87" height="57.32" transform="translate(-47.64 60.32) rotate(-30)"/></g></g></g></g></g></mask><clipPath id="clip-path-27" transform="translate(51.2 38.73)"><rect class="cls-3" x="59.02" y="104" width="59.43" height="31"/></clipPath><clipPath id="clip-path-28" transform="translate(51.2 38.73)"><polygon class="cls-3" points="59.02 135 76.98 104 118.45 104 100.5 135 59.02 135"/></clipPath><linearGradient id="linear-gradient-15" x1="-152.29" y1="399.19" x2="-151.29" y2="399.19" gradientTransform="matrix(0, -38.6, -38.6, 0, 15499.38, -5740.35)" xlink:href="#linear-gradient-11"/></defs><title>Asset 1</title><g id="Layer_2" data-name="Layer 2"><g id="Layer_1-2" data-name="Layer 1"><g id="Artwork_22" data-name="Artwork 22"><g class="cls-21"><g class="cls-21"><g class="cls-21"><text class="cls-22" transform="translate(218.43 183.38)"><tspan class="cls-23">bus</tspan><tspan class="cls-24" x="65.18" y="0">in</tspan><tspan class="cls-23" x="103.27" y="0">e</tspan><tspan class="cls-25" x="124.9" y="0">s</tspan><tspan class="cls-23" x="143.97" y="0">s </tspan><tspan class="cls-24" x="177.77" y="0">i</tspan><tspan class="cls-26" x="192.96" y="0">t </tspan><tspan class="cls-25" x="225.19" y="0">sol</tspan><tspan class="cls-27" x="282.26" y="0">u</tspan><tspan class="cls-25" x="305.09" y="0">tio</tspan><tspan class="cls-23" x="360.55" y="0">n</tspan><tspan x="383.47" y="0">s</tspan></text></g><text class="cls-28" transform="translate(232.62 153.27)"><tspan class="cls-29">F</tspan><tspan x="20.79" y="0">ixIT</tspan></text><g class="cls-21"><path class="cls-30" d="M23.38,146.79.91,108H.71A8.44,8.44,0,0,0,7,111H25.45l22.6,39H29.55a7.75,7.75,0,0,1-6.17-3.21" transform="translate(51.2 38.73)"/><path class="cls-30" d="M51,0H96.84l0,.05a8.09,8.09,0,0,0-5.49,3.73L81.92,20H35.63L45,3.78A7.87,7.87,0,0,1,51,0" transform="translate(51.2 38.73)"/><path class="cls-30" d="M165.3,97.68l-22.61,39,0,0a7.93,7.93,0,0,0-.5-6.52l-9.27-16,22.84-39.43,9.27,16a7.69,7.69,0,0,1,.29,7" transform="translate(51.2 38.73)"/><polygon class="cls-31" points="91.52 188.73 51.84 120.23 91.52 51.73 170.89 51.73 210.57 120.23 170.89 188.73 91.52 188.73"/><g class="cls-32"><g class="cls-33"><g class="cls-34"><rect class="cls-35" x="51.71" y="51.26" width="39.82" height="137.48"/></g></g></g><g class="cls-36"><g class="cls-37"><g class="cls-38"><rect class="cls-39" x="40.28" y="-21.55" width="119.26" height="137.83" transform="translate(60.13 148.95) rotate(-60)"/></g></g></g><g class="cls-40"><g class="cls-41"><g class="cls-42"><rect class="cls-43" x="31" y="56" width="137.83" height="119.26" transform="translate(6.77 104.18) rotate(-30)"/></g></g></g><path class="cls-31" d="M43.08,13,79.27,75.48A11.08,11.08,0,0,0,88.87,81h41.6a6.53,6.53,0,0,0,5.67-9.79L102.41,13Z" transform="translate(51.2 38.73)"/><path class="cls-44" d="M43.37,13,79.45,75.28A11.06,11.06,0,0,0,89,80.79h41.36A6.51,6.51,0,0,0,136,71L102.41,13Z" transform="translate(51.2 38.73)"/><path class="cls-45" d="M43.67,13l36,62.09a11,11,0,0,0,9.54,5.49h41.11a6.49,6.49,0,0,0,5.64-9.73L102.41,13Z" transform="translate(51.2 38.73)"/><path class="cls-46" d="M44,13,79.82,74.89a11,11,0,0,0,9.51,5.48h40.88a6.46,6.46,0,0,0,5.61-9.7L102.42,13Z" transform="translate(51.2 38.73)"/><path class="cls-47" d="M44.26,13,80,74.7a11,11,0,0,0,9.48,5.45h40.64a6.44,6.44,0,0,0,5.6-9.66L102.42,13Z" transform="translate(51.2 38.73)"/><path class="cls-48" d="M44.55,13,80.18,74.5a10.93,10.93,0,0,0,9.46,5.44H130a6.42,6.42,0,0,0,5.59-9.63L102.42,13Z" transform="translate(51.2 38.73)"/><path class="cls-49" d="M44.85,13,80.37,74.31a10.88,10.88,0,0,0,9.42,5.42H130a6.4,6.4,0,0,0,5.56-9.6L102.42,13Z" transform="translate(51.2 38.73)"/><path class="cls-50" d="M45.15,13l35.4,61.11a10.85,10.85,0,0,0,9.39,5.41h39.92A6.38,6.38,0,0,0,135.41,70L102.42,13Z" transform="translate(51.2 38.73)"/><path class="cls-51" d="M45.44,13,80.73,73.92a10.83,10.83,0,0,0,9.37,5.39h39.68a6.36,6.36,0,0,0,5.52-9.55L102.42,13Z" transform="translate(51.2 38.73)"/><path class="cls-52" d="M45.74,13,80.92,73.72a10.77,10.77,0,0,0,9.33,5.38h39.44a6.35,6.35,0,0,0,5.51-9.52L102.42,13Z" transform="translate(51.2 38.73)"/><path class="cls-53" d="M46,13,81.1,73.53a10.77,10.77,0,0,0,9.31,5.36H129.6a6.33,6.33,0,0,0,5.5-9.49L102.42,13Z" transform="translate(51.2 38.73)"/><path class="cls-54" d="M46.33,13l35,60.33a10.72,10.72,0,0,0,9.28,5.34h39A6.3,6.3,0,0,0,135,69.22L102.42,13Z" transform="translate(51.2 38.73)"/><path class="cls-55" d="M46.62,13,81.46,73.14a10.7,10.7,0,0,0,9.25,5.32h38.72A6.28,6.28,0,0,0,134.89,69L102.42,13Z" transform="translate(51.2 38.73)"/><path class="cls-56" d="M46.92,13,81.65,72.94a10.63,10.63,0,0,0,9.22,5.31h38.47a6.26,6.26,0,0,0,5.44-9.39L102.42,13Z" transform="translate(51.2 38.73)"/><path class="cls-57" d="M47.22,13,81.83,72.75A10.63,10.63,0,0,0,91,78h38.24a6.24,6.24,0,0,0,5.42-9.36L102.43,13Z" transform="translate(51.2 38.73)"/><path class="cls-58" d="M47.51,13,82,72.55a10.59,10.59,0,0,0,9.16,5.28h38a6.22,6.22,0,0,0,5.41-9.33L102.43,13Z" transform="translate(51.2 38.73)"/><path class="cls-59" d="M47.81,13,82.19,72.36a10.58,10.58,0,0,0,9.14,5.26h37.76a6.2,6.2,0,0,0,5.38-9.3L102.43,13Z" transform="translate(51.2 38.73)"/><path class="cls-60" d="M48.1,13,82.38,72.16a10.51,10.51,0,0,0,9.1,5.24H129a6.18,6.18,0,0,0,5.37-9.27L102.43,13Z" transform="translate(51.2 38.73)"/><path class="cls-61" d="M48.4,13,82.56,72a10.48,10.48,0,0,0,9.08,5.22h37.27A6.16,6.16,0,0,0,134.26,68L102.43,13Z" transform="translate(51.2 38.73)"/><path class="cls-62" d="M48.69,13,82.74,71.77A10.45,10.45,0,0,0,91.79,77h37a6.14,6.14,0,0,0,5.33-9.21L102.43,13Z" transform="translate(51.2 38.73)"/><path class="cls-63" d="M49,13,82.93,71.58a10.41,10.41,0,0,0,9,5.19h36.8a6.12,6.12,0,0,0,5.32-9.18L102.43,13Z" transform="translate(51.2 38.73)"/><path class="cls-64" d="M49.29,13,83.11,71.38a10.37,10.37,0,0,0,9,5.18h36.55a6.1,6.1,0,0,0,5.3-9.15L102.43,13Z" transform="translate(51.2 38.73)"/><path class="cls-65" d="M49.58,13,83.29,71.19a10.37,10.37,0,0,0,9,5.16h36.32a6.08,6.08,0,0,0,5.28-9.12L102.43,13Z" transform="translate(51.2 38.73)"/><path class="cls-66" d="M49.88,13,83.47,71a10.35,10.35,0,0,0,8.94,5.15h36.07a6.07,6.07,0,0,0,5.27-9.09L102.43,13Z" transform="translate(51.2 38.73)"/><path class="cls-67" d="M50.17,13,83.66,70.8a10.27,10.27,0,0,0,8.9,5.12H128.4a6,6,0,0,0,5.24-9L102.44,13Z" transform="translate(51.2 38.73)"/><path class="cls-68" d="M50.47,13,83.84,70.6a10.25,10.25,0,0,0,8.87,5.11h35.6a6,6,0,0,0,5.23-9L102.44,13Z" transform="translate(51.2 38.73)"/><path class="cls-69" d="M50.77,13,84,70.41a10.23,10.23,0,0,0,8.85,5.09h35.35a6,6,0,0,0,5.21-9l-31-53.5Z" transform="translate(51.2 38.73)"/><path class="cls-70" d="M51.06,13,84.2,70.21A10.21,10.21,0,0,0,93,75.29h35.12a6,6,0,0,0,5.19-9L102.44,13Z" transform="translate(51.2 38.73)"/><path class="cls-71" d="M51.36,13l33,57a10.15,10.15,0,0,0,8.79,5.06h34.87a6,6,0,0,0,5.18-8.94L102.44,13Z" transform="translate(51.2 38.73)"/><path class="cls-72" d="M51.65,13,84.57,69.82a10.14,10.14,0,0,0,8.76,5.05H128A5.94,5.94,0,0,0,133.12,66L102.44,13Z" transform="translate(51.2 38.73)"/><path class="cls-73" d="M52,13l32.8,56.63a10.08,10.08,0,0,0,8.73,5h34.4A5.91,5.91,0,0,0,133,65.78L102.44,13Z" transform="translate(51.2 38.73)"/><path class="cls-74" d="M52.24,13,84.93,69.43a10.07,10.07,0,0,0,8.71,5h34.15a5.89,5.89,0,0,0,5.12-8.84L102.44,13Z" transform="translate(51.2 38.73)"/><path class="cls-75" d="M52.54,13,85.12,69.24a10,10,0,0,0,8.67,5H127.7a5.87,5.87,0,0,0,5.11-8.81L102.44,13Z" transform="translate(51.2 38.73)"/><path class="cls-76" d="M52.84,13,85.3,69a10,10,0,0,0,8.64,5h33.68a5.86,5.86,0,0,0,5.09-8.78L102.44,13Z" transform="translate(51.2 38.73)"/><path class="cls-77" d="M53.13,13,85.48,68.85a10,10,0,0,0,8.62,5h33.43a5.83,5.83,0,0,0,5.07-8.75L102.44,13Z" transform="translate(51.2 38.73)"/><path class="cls-78" d="M53.43,13,85.67,68.65a9.91,9.91,0,0,0,8.58,4.95h33.2a5.82,5.82,0,0,0,5-8.72L102.45,13Z" transform="translate(51.2 38.73)"/><path class="cls-79" d="M53.72,13,85.85,68.46a9.9,9.9,0,0,0,8.56,4.93h33a5.8,5.8,0,0,0,5-8.7L102.45,13Z" transform="translate(51.2 38.73)"/><path class="cls-80" d="M54,13,86,68.26a9.85,9.85,0,0,0,8.53,4.91h32.71a5.77,5.77,0,0,0,5-8.66L102.45,13Z" transform="translate(51.2 38.73)"/><path class="cls-81" d="M54.31,13l31.9,55.07A9.83,9.83,0,0,0,94.71,73h32.48a5.75,5.75,0,0,0,5-8.63L102.45,13Z" transform="translate(51.2 38.73)"/><path class="cls-82" d="M54.61,13,86.4,67.87a9.79,9.79,0,0,0,8.47,4.88H127.1a5.73,5.73,0,0,0,5-8.6L102.45,13Z" transform="translate(51.2 38.73)"/><path class="cls-83" d="M54.91,13,86.58,67.68A9.75,9.75,0,0,0,95,72.54h32A5.72,5.72,0,0,0,132,64L102.45,13Z" transform="translate(51.2 38.73)"/><path class="cls-84" d="M55.2,13,86.76,67.48a9.74,9.74,0,0,0,8.42,4.85h31.75a5.69,5.69,0,0,0,4.94-8.54L102.45,13Z" transform="translate(51.2 38.73)"/><path class="cls-85" d="M55.5,13,87,67.29a9.7,9.7,0,0,0,8.38,4.83h31.51a5.67,5.67,0,0,0,4.93-8.51L102.45,13Z" transform="translate(51.2 38.73)"/><path class="cls-86" d="M55.79,13,87.13,67.09a9.64,9.64,0,0,0,8.35,4.81h31.27a5.65,5.65,0,0,0,4.92-8.47L102.45,13Z" transform="translate(51.2 38.73)"/><path class="cls-87" d="M56.09,13,87.31,66.9a9.63,9.63,0,0,0,8.33,4.79h31a5.62,5.62,0,0,0,4.89-8.44L102.45,13Z" transform="translate(51.2 38.73)"/><path class="cls-88" d="M56.38,13,87.49,66.7a9.6,9.6,0,0,0,8.3,4.78h30.79a5.61,5.61,0,0,0,4.88-8.42L102.46,13Z" transform="translate(51.2 38.73)"/><path class="cls-89" d="M56.68,13l31,53.5a9.55,9.55,0,0,0,8.26,4.77H126.5a5.59,5.59,0,0,0,4.85-8.39L102.46,13Z" transform="translate(51.2 38.73)"/><path class="cls-90" d="M57,13,87.86,66.31a9.52,9.52,0,0,0,8.24,4.75h30.31a5.57,5.57,0,0,0,4.84-8.36L102.46,13Z" transform="translate(51.2 38.73)"/><path class="cls-91" d="M57.27,13,88,66.11a9.5,9.5,0,0,0,8.21,4.74h30.07a5.56,5.56,0,0,0,4.83-8.33L102.46,13Z" transform="translate(51.2 38.73)"/><path class="cls-92" d="M57.57,13,88.22,65.92a9.47,9.47,0,0,0,8.19,4.72h29.83a5.53,5.53,0,0,0,4.8-8.3L102.46,13Z" transform="translate(51.2 38.73)"/><path class="cls-93" d="M57.86,13,88.41,65.72a9.41,9.41,0,0,0,8.15,4.7h29.59a5.51,5.51,0,0,0,4.79-8.26L102.46,13Z" transform="translate(51.2 38.73)"/><path class="cls-94" d="M58.16,13,88.59,65.53a9.38,9.38,0,0,0,8.12,4.68h29.35A5.49,5.49,0,0,0,130.83,62L102.46,13Z" transform="translate(51.2 38.73)"/><path class="cls-95" d="M58.45,13,88.77,65.33A9.37,9.37,0,0,0,96.87,70H126a5.47,5.47,0,0,0,4.75-8.2L102.46,13Z" transform="translate(51.2 38.73)"/><path class="cls-31" d="M158,84H85.86a11,11,0,0,0-9.56,5.5L55.59,125.25A6.5,6.5,0,0,0,61.23,135H128.4Z" transform="translate(51.2 38.73)"/><path class="cls-44" d="M157.8,84.25H85.93a11,11,0,0,0-9.53,5.48L55.81,125.28A6.48,6.48,0,0,0,61.44,135h67Z" transform="translate(51.2 38.73)"/><path class="cls-45" d="M157.66,84.5H86A11,11,0,0,0,76.51,90L56,125.31A6.46,6.46,0,0,0,61.64,135H128.4Z" transform="translate(51.2 38.73)"/><path class="cls-46" d="M157.51,84.75H86.08a10.94,10.94,0,0,0-9.47,5.45L56.25,125.34A6.44,6.44,0,0,0,61.84,135H128.4Z" transform="translate(51.2 38.73)"/><path class="cls-47" d="M157.37,85H86.15a10.92,10.92,0,0,0-9.44,5.43L56.47,125.37A6.42,6.42,0,0,0,62.05,135H128.4Z" transform="translate(51.2 38.73)"/><path class="cls-48" d="M157.22,85.25h-71a10.88,10.88,0,0,0-9.42,5.42L56.69,125.4a6.4,6.4,0,0,0,5.56,9.6H128.4Z" transform="translate(51.2 38.73)"/><path class="cls-49" d="M157.08,85.5H86.3a10.86,10.86,0,0,0-9.39,5.4l-20,34.53A6.38,6.38,0,0,0,62.45,135h66Z" transform="translate(51.2 38.73)"/><path class="cls-50" d="M156.93,85.75H86.37A10.79,10.79,0,0,0,77,91.14L57.13,125.46A6.36,6.36,0,0,0,62.66,135H128.4Z" transform="translate(51.2 38.73)"/><path class="cls-51" d="M156.79,86H86.45a10.78,10.78,0,0,0-9.33,5.37L57.35,125.49A6.34,6.34,0,0,0,62.86,135H128.4Z" transform="translate(51.2 38.73)"/><path class="cls-52" d="M156.64,86.25H86.52a10.76,10.76,0,0,0-9.3,5.35L57.57,125.52a6.32,6.32,0,0,0,5.5,9.48H128.4Z" transform="translate(51.2 38.73)"/><path class="cls-53" d="M156.5,86.5H86.6a10.69,10.69,0,0,0-9.27,5.34L57.79,125.55A6.3,6.3,0,0,0,63.27,135H128.4Z" transform="translate(51.2 38.73)"/><path class="cls-54" d="M156.35,86.75H86.67a10.69,10.69,0,0,0-9.24,5.32L58,125.58A6.28,6.28,0,0,0,63.47,135H128.4Z" transform="translate(51.2 38.73)"/><path class="cls-55" d="M156.21,87H86.75a10.64,10.64,0,0,0-9.22,5.3L58.24,125.61A6.26,6.26,0,0,0,63.68,135H128.4Z" transform="translate(51.2 38.73)"/><path class="cls-56" d="M156.06,87.25H86.82a10.63,10.63,0,0,0-9.19,5.29l-19.17,33.1A6.24,6.24,0,0,0,63.88,135H128.4Z" transform="translate(51.2 38.73)"/><path class="cls-57" d="M155.92,87.5h-69a10.58,10.58,0,0,0-9.15,5.27l-19.06,32.9a6.22,6.22,0,0,0,5.4,9.33H128.4Z" transform="translate(51.2 38.73)"/><path class="cls-58" d="M155.77,87.75H87A10.53,10.53,0,0,0,77.84,93L58.9,125.7a6.2,6.2,0,0,0,5.39,9.3H128.4Z" transform="translate(51.2 38.73)"/><path class="cls-59" d="M155.62,88H87a10.53,10.53,0,0,0-9.1,5.24L59.12,125.73A6.18,6.18,0,0,0,64.49,135H128.4Z" transform="translate(51.2 38.73)"/><path class="cls-60" d="M155.48,88.25H87.12A10.5,10.5,0,0,0,78,93.47l-18.7,32.29A6.16,6.16,0,0,0,64.7,135h63.7Z" transform="translate(51.2 38.73)"/><path class="cls-61" d="M155.33,88.5H87.19a10.42,10.42,0,0,0-9,5.21L59.56,125.79A6.14,6.14,0,0,0,64.9,135h63.5Z" transform="translate(51.2 38.73)"/><path class="cls-62" d="M155.19,88.75H87.26a10.41,10.41,0,0,0-9,5.19L59.78,125.82A6.12,6.12,0,0,0,65.1,135h63.3Z" transform="translate(51.2 38.73)"/><path class="cls-63" d="M155,89H87.34a10.39,10.39,0,0,0-9,5.17L60,125.85A6.1,6.1,0,0,0,65.31,135H128.4Z" transform="translate(51.2 38.73)"/><path class="cls-64" d="M154.9,89.25H87.41a10.37,10.37,0,0,0-9,5.16L60.22,125.88A6.08,6.08,0,0,0,65.51,135H128.4Z" transform="translate(51.2 38.73)"/><path class="cls-65" d="M154.75,89.5H87.49a10.31,10.31,0,0,0-8.93,5.14L60.44,125.91A6.06,6.06,0,0,0,65.71,135h62.68Z" transform="translate(51.2 38.73)"/><path class="cls-66" d="M154.61,89.75H87.56a10.28,10.28,0,0,0-8.9,5.13l-18,31.05A6.05,6.05,0,0,0,65.92,135h62.47Z" transform="translate(51.2 38.73)"/><path class="cls-67" d="M154.46,90H87.63a10.25,10.25,0,0,0-8.87,5.11L60.89,126a6,6,0,0,0,5.23,9h62.27Z" transform="translate(51.2 38.73)"/><path class="cls-68" d="M154.32,90.25H87.71a10.23,10.23,0,0,0-8.85,5.09L61.11,126a6,6,0,0,0,5.21,9h62.07Z" transform="translate(51.2 38.73)"/><path class="cls-69" d="M154.17,90.5H87.78A10.19,10.19,0,0,0,79,95.58L61.33,126a6,6,0,0,0,5.2,9h61.86Z" transform="translate(51.2 38.73)"/><path class="cls-70" d="M154,90.75H87.86a10.15,10.15,0,0,0-8.79,5.06L61.55,126.05a6,6,0,0,0,5.18,9h61.66Z" transform="translate(51.2 38.73)"/><path class="cls-71" d="M153.88,91H87.93a10.13,10.13,0,0,0-8.76,5l-17.4,30A5.94,5.94,0,0,0,66.94,135h61.45Z" transform="translate(51.2 38.73)"/><path class="cls-72" d="M153.74,91.25H88a10.1,10.1,0,0,0-8.73,5L62,126.11A5.93,5.93,0,0,0,67.14,135h61.25Z" transform="translate(51.2 38.73)"/><path class="cls-73" d="M153.59,91.5H88.08a10,10,0,0,0-8.7,5L62.21,126.14A5.91,5.91,0,0,0,67.34,135h61Z" transform="translate(51.2 38.73)"/><path class="cls-74" d="M153.45,91.75H88.15a10,10,0,0,0-8.67,5L62.43,126.17A5.89,5.89,0,0,0,67.55,135h60.84Z" transform="translate(51.2 38.73)"/><path class="cls-75" d="M153.3,92H88.23a10,10,0,0,0-8.65,5L62.65,126.2a5.87,5.87,0,0,0,5.1,8.8h60.64Z" transform="translate(51.2 38.73)"/><path class="cls-76" d="M153.16,92.25H88.3a10,10,0,0,0-8.62,5l-16.81,29A5.85,5.85,0,0,0,68,135h60.44Z" transform="translate(51.2 38.73)"/><path class="cls-77" d="M153,92.5H88.37a9.91,9.91,0,0,0-8.58,5l-16.7,28.81A5.83,5.83,0,0,0,68.16,135h60.23Z" transform="translate(51.2 38.73)"/><path class="cls-78" d="M152.87,92.75H88.45a9.9,9.9,0,0,0-8.56,4.93L63.31,126.29a5.81,5.81,0,0,0,5,8.71h60Z" transform="translate(51.2 38.73)"/><path class="cls-79" d="M152.72,93H88.52A9.85,9.85,0,0,0,80,97.91L63.54,126.32a5.78,5.78,0,0,0,5,8.68h59.83Z" transform="translate(51.2 38.73)"/><path class="cls-80" d="M152.58,93.25h-64a9.84,9.84,0,0,0-8.51,4.9l-16.33,28.2a5.76,5.76,0,0,0,5,8.65h59.62Z" transform="translate(51.2 38.73)"/><path class="cls-81" d="M152.43,93.5H88.67a9.79,9.79,0,0,0-8.47,4.88L64,126.38A5.74,5.74,0,0,0,69,135h59.42Z" transform="translate(51.2 38.73)"/><path class="cls-82" d="M152.29,93.75H88.74a9.73,9.73,0,0,0-8.44,4.87L64.2,126.41a5.73,5.73,0,0,0,5,8.59h59.21Z" transform="translate(51.2 38.73)"/><path class="cls-83" d="M152.14,94H88.82a9.74,9.74,0,0,0-8.42,4.85l-16,27.59a5.71,5.71,0,0,0,5,8.56h59Z" transform="translate(51.2 38.73)"/><path class="cls-84" d="M152,94.25H88.89a9.7,9.7,0,0,0-8.39,4.83L64.64,126.47A5.69,5.69,0,0,0,69.58,135h58.81Z" transform="translate(51.2 38.73)"/><path class="cls-85" d="M151.85,94.5H89a9.65,9.65,0,0,0-8.36,4.82L64.86,126.5a5.67,5.67,0,0,0,4.93,8.5h58.6Z" transform="translate(51.2 38.73)"/><path class="cls-86" d="M151.71,94.75H89a9.63,9.63,0,0,0-8.33,4.8l-15.63,27A5.65,5.65,0,0,0,70,135h58.4Z" transform="translate(51.2 38.73)"/><path class="cls-87" d="M151.56,95H89.11a9.6,9.6,0,0,0-8.3,4.78L65.3,126.56A5.63,5.63,0,0,0,70.19,135h58.2Z" transform="translate(51.2 38.73)"/><path class="cls-88" d="M151.42,95.25H89.19A9.58,9.58,0,0,0,80.91,100L65.52,126.59A5.61,5.61,0,0,0,70.4,135h58Z" transform="translate(51.2 38.73)"/><path class="cls-89" d="M151.27,95.5h-62A9.52,9.52,0,0,0,81,100.25L65.74,126.62A5.59,5.59,0,0,0,70.6,135h57.79Z" transform="translate(51.2 38.73)"/><path class="cls-90" d="M151.13,95.75H89.34a9.51,9.51,0,0,0-8.22,4.74L66,126.65A5.57,5.57,0,0,0,70.81,135h57.58Z" transform="translate(51.2 38.73)"/><path class="cls-91" d="M151,96H89.41a9.46,9.46,0,0,0-8.19,4.72l-15,26A5.55,5.55,0,0,0,71,135h57.38Z" transform="translate(51.2 38.73)"/><path class="cls-92" d="M150.84,96.25H89.48a9.44,9.44,0,0,0-8.16,4.7L66.41,126.7a5.53,5.53,0,0,0,4.8,8.3h57.18Z" transform="translate(51.2 38.73)"/><path class="cls-93" d="M150.69,96.5H89.56a9.4,9.4,0,0,0-8.13,4.69l-14.8,25.54A5.51,5.51,0,0,0,71.42,135h57Z" transform="translate(51.2 38.73)"/><path class="cls-94" d="M150.55,96.75H89.63a9.36,9.36,0,0,0-8.1,4.67L66.85,126.76A5.49,5.49,0,0,0,71.62,135h56.77Z" transform="translate(51.2 38.73)"/><path class="cls-95" d="M150.4,97H89.71a9.34,9.34,0,0,0-8.08,4.65L67.07,126.79A5.47,5.47,0,0,0,71.82,135h56.57Z" transform="translate(51.2 38.73)"/><path class="cls-31" d="M38.77,147.56,75,85a11,11,0,0,0,0-11.06L54.18,38a6.57,6.57,0,0,0-11.35,0L9.06,96.28Z" transform="translate(51.2 38.73)"/><path class="cls-44" d="M38.62,147.31,74.75,84.94a11,11,0,0,0,0-11L54.05,38.17a6.54,6.54,0,0,0-11.32,0L9.06,96.28Z" transform="translate(51.2 38.73)"/><path class="cls-45" d="M38.48,147.06l36-62.18a11,11,0,0,0,0-11L53.91,38.34a6.53,6.53,0,0,0-11.29,0L9.06,96.28Z" transform="translate(51.2 38.73)"/><path class="cls-46" d="M38.33,146.8l35.91-62a10.93,10.93,0,0,0,0-11L53.77,38.52a6.5,6.5,0,0,0-11.25,0L9.06,96.28Z" transform="translate(51.2 38.73)"/><path class="cls-47" d="M38.18,146.55,74,84.75a10.88,10.88,0,0,0,0-10.92L53.63,38.7a6.48,6.48,0,0,0-11.21,0L9.06,96.28Z" transform="translate(51.2 38.73)"/><path class="cls-48" d="M38,146.3,73.73,84.69a10.87,10.87,0,0,0,0-10.89L53.49,38.87a6.46,6.46,0,0,0-11.18,0L9.06,96.28Z" transform="translate(51.2 38.73)"/><path class="cls-49" d="M37.89,146,73.47,84.63a10.81,10.81,0,0,0,0-10.86L53.36,39.05a6.45,6.45,0,0,0-11.15,0L9.06,96.27Z" transform="translate(51.2 38.73)"/><path class="cls-50" d="M37.74,145.79,73.21,84.56a10.79,10.79,0,0,0,0-10.82l-20-34.51a6.43,6.43,0,0,0-11.12,0l-33,57Z" transform="translate(51.2 38.73)"/><path class="cls-51" d="M37.6,145.54,73,84.5a10.78,10.78,0,0,0,0-10.79L53.08,39.4A6.41,6.41,0,0,0,42,39.4L9.05,96.27Z" transform="translate(51.2 38.73)"/><path class="cls-52" d="M37.45,145.29,72.7,84.44a10.72,10.72,0,0,0,0-10.76L52.94,39.58a6.38,6.38,0,0,0-11,0L9.05,96.27Z" transform="translate(51.2 38.73)"/><path class="cls-53" d="M37.3,145,72.44,84.38a10.71,10.71,0,0,0,0-10.73L52.8,39.75a6.37,6.37,0,0,0-11,0L9.05,96.27Z" transform="translate(51.2 38.73)"/><path class="cls-54" d="M37.16,144.78l35-60.47a10.67,10.67,0,0,0,0-10.68L52.67,39.93a6.35,6.35,0,0,0-11,0L9.05,96.27Z" transform="translate(51.2 38.73)"/><path class="cls-55" d="M37,144.53,71.93,84.25a10.61,10.61,0,0,0,0-10.65L52.53,40.11a6.32,6.32,0,0,0-10.94,0L9.05,96.27Z" transform="translate(51.2 38.73)"/><path class="cls-56" d="M36.86,144.27,71.67,84.19a10.56,10.56,0,0,0,0-10.62L52.39,40.28a6.31,6.31,0,0,0-10.91,0l-32.43,56Z" transform="translate(51.2 38.73)"/><path class="cls-57" d="M36.72,144l34.7-59.89a10.6,10.6,0,0,0,0-10.59L52.25,40.46a6.29,6.29,0,0,0-10.87,0L9.05,96.27Z" transform="translate(51.2 38.73)"/><path class="cls-58" d="M36.57,143.77,71.16,84.06a10.52,10.52,0,0,0,0-10.55l-19-32.88a6.27,6.27,0,0,0-10.83,0L9.05,96.26Z" transform="translate(51.2 38.73)"/><path class="cls-59" d="M36.42,143.52,70.9,84a10.47,10.47,0,0,0,0-10.52L52,40.81a6.25,6.25,0,0,0-10.8,0L9.05,96.26Z" transform="translate(51.2 38.73)"/><path class="cls-60" d="M36.28,143.26,70.64,83.94a10.46,10.46,0,0,0,0-10.49L51.84,41a6.23,6.23,0,0,0-10.77,0l-32,55.27Z" transform="translate(51.2 38.73)"/><path class="cls-61" d="M36.13,143,70.39,83.88a10.45,10.45,0,0,0,0-10.46L51.7,41.16a6.21,6.21,0,0,0-10.73,0L9.05,96.26Z" transform="translate(51.2 38.73)"/><path class="cls-62" d="M36,142.76,70.13,83.81a10.38,10.38,0,0,0,0-10.42l-18.57-32a6.19,6.19,0,0,0-10.7,0L9.05,96.26Z" transform="translate(51.2 38.73)"/><path class="cls-63" d="M35.84,142.5l34-58.75a10.3,10.3,0,0,0,0-10.38L51.42,41.52a6.16,6.16,0,0,0-10.66,0L9.05,96.26Z" transform="translate(51.2 38.73)"/><path class="cls-64" d="M35.69,142.25,69.62,83.69a10.34,10.34,0,0,0,0-10.35L51.28,41.69a6.14,6.14,0,0,0-10.62,0L9.05,96.26Z" transform="translate(51.2 38.73)"/><path class="cls-65" d="M35.54,142,69.36,83.63a10.29,10.29,0,0,0,0-10.32L51.15,41.87a6.13,6.13,0,0,0-10.6,0L9,96.26Z" transform="translate(51.2 38.73)"/><path class="cls-66" d="M35.4,141.75,69.1,83.56a10.21,10.21,0,0,0,0-10.28L51,42.05a6.1,6.1,0,0,0-10.56,0L9,96.25Z" transform="translate(51.2 38.73)"/><path class="cls-67" d="M35.25,141.49l33.6-58a10.25,10.25,0,0,0,0-10.25l-18-31a6.08,6.08,0,0,0-10.52,0L9,96.25Z" transform="translate(51.2 38.73)"/><path class="cls-68" d="M35.11,141.24l33.48-57.8a10.2,10.2,0,0,0,0-10.22L50.73,42.4a6.06,6.06,0,0,0-10.49,0L9,96.25Z" transform="translate(51.2 38.73)"/><path class="cls-69" d="M35,141,68.33,83.38a10.14,10.14,0,0,0,0-10.19L50.59,42.57a6,6,0,0,0-10.45,0L9,96.25Z" transform="translate(51.2 38.73)"/><path class="cls-70" d="M34.81,140.73,68.08,83.31a10.12,10.12,0,0,0,0-10.15L50.46,42.75a6,6,0,0,0-10.42,0L9,96.25Z" transform="translate(51.2 38.73)"/><path class="cls-71" d="M34.67,140.48,67.82,83.25a10.09,10.09,0,0,0,0-10.11L50.32,42.93a6,6,0,0,0-10.39,0L9,96.25Z" transform="translate(51.2 38.73)"/><path class="cls-72" d="M34.52,140.23l33-57a10,10,0,0,0,0-10.08l-17.38-30a6,6,0,0,0-10.35,0L9,96.25Z" transform="translate(51.2 38.73)"/><path class="cls-73" d="M34.37,140,67.31,83.13a10,10,0,0,0,0-10L50,43.28a6,6,0,0,0-10.32,0L9,96.25Z" transform="translate(51.2 38.73)"/><path class="cls-74" d="M34.23,139.72,67.05,83.06a10,10,0,0,0,0-10L49.9,43.45a6,6,0,0,0-10.28,0L9,96.24Z" transform="translate(51.2 38.73)"/><path class="cls-75" d="M34.08,139.47,66.79,83a10,10,0,0,0,0-10l-17-29.39a5.93,5.93,0,0,0-10.25,0L9,96.24Z" transform="translate(51.2 38.73)"/><path class="cls-76" d="M33.93,139.22,66.54,82.94a9.94,9.94,0,0,0,0-10L49.63,43.81a5.91,5.91,0,0,0-10.22,0L9,96.24Z" transform="translate(51.2 38.73)"/><path class="cls-77" d="M33.79,139,66.28,82.88a9.88,9.88,0,0,0,0-9.92L49.49,44a5.89,5.89,0,0,0-10.18,0L9,96.24Z" transform="translate(51.2 38.73)"/><path class="cls-78" d="M33.64,138.71,66,82.81a9.86,9.86,0,0,0,0-9.88L49.35,44.16a5.86,5.86,0,0,0-10.14,0L9,96.24Z" transform="translate(51.2 38.73)"/><path class="cls-79" d="M33.49,138.46,65.76,82.75a9.78,9.78,0,0,0,0-9.84L49.21,44.34a5.85,5.85,0,0,0-10.11,0L9,96.24Z" transform="translate(51.2 38.73)"/><path class="cls-80" d="M33.35,138.2,65.51,82.69a9.77,9.77,0,0,0,0-9.81L49.08,44.51a5.83,5.83,0,0,0-10.08,0L9,96.24Z" transform="translate(51.2 38.73)"/><path class="cls-81" d="M33.2,138,65.25,82.63a9.77,9.77,0,0,0,0-9.78L48.94,44.69a5.81,5.81,0,0,0-10,0L9,96.24Z" transform="translate(51.2 38.73)"/><path class="cls-82" d="M33.05,137.7,65,82.56a9.69,9.69,0,0,0,0-9.74L48.8,44.87a5.79,5.79,0,0,0-10,0L9,96.24Z" transform="translate(51.2 38.73)"/><path class="cls-83" d="M32.91,137.45,64.74,82.5a9.68,9.68,0,0,0,0-9.71L48.66,45a5.77,5.77,0,0,0-10,0L9,96.23Z" transform="translate(51.2 38.73)"/><path class="cls-84" d="M32.76,137.19,64.48,82.44a9.68,9.68,0,0,0,0-9.68l-16-27.54a5.74,5.74,0,0,0-9.93,0L9,96.23Z" transform="translate(51.2 38.73)"/><path class="cls-85" d="M32.61,136.94,64.22,82.38a9.62,9.62,0,0,0,0-9.65L48.39,45.39a5.73,5.73,0,0,0-9.91,0L9,96.23Z" transform="translate(51.2 38.73)"/><path class="cls-86" d="M32.47,136.69,64,82.31a9.59,9.59,0,0,0,0-9.61L48.25,45.57a5.71,5.71,0,0,0-9.87,0L9,96.23Z" transform="translate(51.2 38.73)"/><path class="cls-87" d="M32.32,136.43,63.71,82.25a9.54,9.54,0,0,0,0-9.58L48.11,45.75a5.68,5.68,0,0,0-9.83,0L9,96.23Z" transform="translate(51.2 38.73)"/><path class="cls-88" d="M32.17,136.18l31.28-54a9.51,9.51,0,0,0,0-9.54L48,45.92a5.67,5.67,0,0,0-9.8,0L9,96.23Z" transform="translate(51.2 38.73)"/><path class="cls-89" d="M32,135.93,63.2,82.13a9.5,9.5,0,0,0,0-9.51L47.83,46.1a5.64,5.64,0,0,0-9.76,0L9,96.23Z" transform="translate(51.2 38.73)"/><path class="cls-90" d="M31.88,135.67,62.94,82.06a9.43,9.43,0,0,0,0-9.47L47.7,46.27a5.63,5.63,0,0,0-9.73,0L9,96.23Z" transform="translate(51.2 38.73)"/><path class="cls-91" d="M31.73,135.42,62.68,82a9.42,9.42,0,0,0,0-9.44L47.56,46.45a5.61,5.61,0,0,0-9.7,0L9,96.22Z" transform="translate(51.2 38.73)"/><path class="cls-92" d="M31.59,135.17,62.43,81.94a9.41,9.41,0,0,0,0-9.41l-15-25.9a5.58,5.58,0,0,0-9.66,0L9,96.22Z" transform="translate(51.2 38.73)"/><path class="cls-93" d="M31.44,134.92l30.73-53a9.36,9.36,0,0,0,0-9.38L47.28,46.8a5.57,5.57,0,0,0-9.63,0L9,96.22Z" transform="translate(51.2 38.73)"/><path class="cls-94" d="M31.3,134.66,61.91,81.81a9.28,9.28,0,0,0,0-9.34L47.14,47a5.55,5.55,0,0,0-9.59,0L9,96.22Z" transform="translate(51.2 38.73)"/><path class="cls-95" d="M31.15,134.41l30.5-52.66a9.28,9.28,0,0,0,0-9.31L47,47.16a5.52,5.52,0,0,0-9.55,0L9,96.22Z" transform="translate(51.2 38.73)"/></g><g class="cls-96"><rect class="cls-97" x="102.65" y="38.73" width="93.01" height="76"/></g><g class="cls-21"><g class="cls-98"><g class="cls-99"><g class="cls-100"><g class="cls-101"><rect class="cls-102" x="78.24" y="21.33" width="59.67" height="67.34" transform="translate(57.6 159.83) rotate(-60)"/></g></g></g></g></g><g class="cls-103"><rect class="cls-104" x="-25.16" y="19.79" width="116" height="135.23" transform="translate(11.89 66.86) rotate(-30)"/></g><g class="cls-21"><g class="cls-105"><g class="cls-99"><g class="cls-106"><g class="cls-107"><rect class="cls-108" x="74.72" y="74.85" width="39.22" height="67.69"/></g></g></g></g></g><g class="cls-109"><rect class="cls-110" x="62.73" y="59.79" width="92.63" height="118.43" transform="matrix(0.5, -0.87, 0.87, 0.5, 2.66, 192.66)"/></g><g class="cls-21"><g class="cls-111"><g class="cls-99"><g class="cls-112"><g class="cls-113"><rect class="cls-114" x="55.25" y="91.22" width="66.97" height="56.56" transform="translate(3.34 99.11) rotate(-30)"/></g></g></g></g></g></g></g></g></g></g></svg>